<?xml version="1.0" encoding="UTF-8"?>
<!DOCTYPE svg PUBLIC "-//W3C//DTD SVG 1.1//EN" "http://www.w3.org/Graphics/SVG/1.1/DTD/svg11.dtd">
<!-- Creator: CorelDRAW 2017 -->
<svg xmlns="http://www.w3.org/2000/svg" xml:space="preserve" width="7.38497in" height="7.49119in" version="1.1" style="shape-rendering:geometricPrecision; text-rendering:geometricPrecision; image-rendering:optimizeQuality; fill-rule:evenodd; clip-rule:evenodd"
viewBox="0 0 5556 5636"
 xmlns:xlink="http://www.w3.org/1999/xlink">
 <defs>
  <style type="text/css">
   <![CDATA[
    .str2 {stroke:#373435;stroke-width:73.1455}
    .str1 {stroke:#373435;stroke-width:62.6983}
    .str3 {stroke:#373435;stroke-width:10.4502}
    .str0 {stroke:#373435;stroke-width:2.2571}
    .fil1 {fill:none;fill-rule:nonzero}
    .fil3 {fill:#FEFEFE}
    .fil2 {fill:#373435}
    .fil5 {fill:#F6A632}
    .fil0 {fill:#3980C0}
    .fil4 {fill:#373435;fill-rule:nonzero}
   ]]>
  </style>
 </defs>
 <g id="__x0023_Layer_x0020_1">
  <metadata id="CorelCorpID_0Corel-Layer"/>
  <g id="_1730745500096">
   <g>
    <path class="fil0" d="M2780 0c1383,386 2028,866 2768,2011 60,1434 -196,2196 -1057,3253 -1346,501 -2150,492 -3421,0 -892,-1125 -1132,-1892 -1057,-3253 794,-1196 1450,-1662 2767,-2011z"/>
    <polyline class="fil1 str0" points="851,2286 790,2375 669,2557 589,2790 546,2889 554,3053 621,3165 645,3296 677,3388 750,3522 744,3591 760,3664 817,3766 870,3833 886,3913 "/>
    <path class="fil2" d="M2780 4983c84,-6 150,-34 228,-63 118,-45 218,-93 428,-40 57,14 125,40 190,68 136,58 293,113 468,98l15 -62c-75,-59 -103,-143 -126,-248 -6,-28 -12,-55 -19,-84 0,0 0,0 0,0l-6 -22 -22 -2c-129,-10 -221,-42 -336,-83 -49,-18 -102,-37 -164,-56 -169,-52 -323,-13 -466,23 -76,19 -117,37 -184,40l-1 0 -4 0 -4 0 0 0c-68,-2 -109,-20 -184,-40 -143,-36 -298,-75 -466,-23 -62,19 -115,38 -164,56 -115,41 -207,73 -336,83l-22 2 -6 22c0,0 0,0 0,0 -8,29 -13,56 -20,84 -23,105 -47,195 -122,254l12 47c175,15 323,-33 459,-92 65,-28 129,-54 187,-68 210,-53 320,-1 439,44 78,29 145,57 229,63zm0 -468l0 0c-115,-31 -231,-86 -333,-161 -21,-16 -42,-32 -62,-50 -8,-7 -15,-14 -23,-21 -132,54 -323,115 -518,150 -163,29 -329,39 -469,10 -145,-29 -261,-100 -315,-234 -9,-23 -17,-48 -22,-74 0,0 0,0 0,0 -112,-74 -167,-164 -185,-236 -4,-15 -6,-30 -7,-43 -1,-8 -1,-15 0,-23 -77,-76 -123,-155 -130,-229 -1,-16 -1,-31 2,-47 2,-9 3,-18 6,-26l0 0 0 0 1 0c-39,-46 -69,-92 -90,-146 -22,-56 -32,-119 -29,-196 -137,-126 -120,-323 -36,-489 98,-195 229,-380 286,-544 32,-91 57,-34 57,-6 0,136 -22,282 -50,413 -3,14 -6,28 -15,73 -14,67 -14,130 5,176 8,19 19,34 33,47 14,12 33,21 56,26 53,11 128,-1 229,-43 247,-104 486,-195 656,-207 190,-13 301,63 264,305 -5,33 -11,67 -16,98 -14,81 -21,127 -16,170 4,33 13,70 36,108 19,32 49,64 95,96 2,-6 5,-13 7,-19 -13,-138 0,-275 58,-404 11,-23 22,-46 36,-68l-266 -1295c-18,-89 -39,-145 -74,-171 -47,-35 -124,-25 -178,-16 -46,8 -46,-19 -13,-38 50,-28 110,-68 164,-104 98,-65 196,-123 305,-40 14,-93 87,-142 157,-190 20,-15 70,-43 96,-82 25,-36 54,-49 59,-7 1,11 5,34 9,58 50,-54 125,-85 174,-137 28,-30 29,-58 55,-59 26,1 27,29 55,59 49,52 124,83 174,137 4,-24 8,-47 9,-58 5,-42 34,-30 59,7 27,38 76,67 96,82 69,48 142,97 156,190 109,-83 208,-25 305,40 54,36 115,76 164,104 32,18 32,45 -14,38 -53,-9 -131,-19 -178,16 -35,27 -56,82 -74,171l-266 1295c13,22 25,45 35,68 58,129 72,267 58,404 3,6 5,13 7,19 46,-32 76,-64 95,-96 23,-38 32,-75 36,-108 5,-44 -2,-89 -16,-170 -5,-30 -11,-65 -16,-98 -37,-241 74,-318 264,-305 171,11 409,103 657,207 101,43 176,54 229,43 23,-5 41,-13 56,-26 15,-12 26,-28 33,-47 19,-46 19,-109 6,-176 -9,-45 -12,-59 -15,-73 -27,-131 -49,-277 -49,-413 0,-28 25,-85 57,6 57,164 188,349 286,544 84,167 101,364 -36,489 3,77 -7,140 -29,196 -20,54 -51,100 -89,146l0 0 0 0 0 0c3,8 5,17 6,26 3,16 3,32 2,47 -6,74 -53,152 -130,229 0,8 0,15 0,23 -1,13 -3,28 -7,43 -18,72 -73,162 -185,236 0,0 0,0 0,0 -5,26 -13,51 -22,74 -54,134 -170,204 -315,234 -140,29 -306,18 -469,-10 -195,-34 -385,-96 -518,-150 -8,7 -15,14 -23,21 -21,18 -41,34 -62,50 -102,75 -219,130 -333,161z"/>
    <path class="fil3" d="M2710 2460c25,32 51,65 71,105 19,-40 45,-73 70,-105 39,-50 77,-97 79,-169 2,-74 -42,-134 -85,-195 -23,-33 -46,-65 -64,-100 -18,35 -41,68 -64,100 -43,61 -87,121 -85,195 1,72 39,119 79,169z"/>
    <path class="fil3" d="M1069 4084c61,26 117,40 173,46 51,6 103,5 159,3 39,-2 43,61 -1,63 -57,3 -110,3 -165,-3 -41,-4 -82,-12 -125,-26 2,8 5,15 8,22 45,111 145,171 270,196 131,27 289,17 446,-11 163,-29 323,-77 447,-123 -185,-34 -328,-97 -427,-194 -112,-109 -165,-258 -154,-454 7,-128 46,-259 82,-381 25,-85 49,-166 59,-236 19,-130 -14,-227 -190,-253 -135,37 -292,99 -454,167 -114,48 -201,60 -266,47 -34,-7 -61,-20 -84,-39 -22,-19 -39,-43 -51,-70 -24,-58 -25,-134 -9,-213 1,-5 8,-39 15,-73 15,-74 30,-142 41,-215 -29,57 -62,114 -95,171 -102,179 -205,358 -170,509 44,190 267,233 430,257 70,10 62,73 -15,60 -90,-14 -194,-37 -276,-73 -17,-8 -33,-16 -49,-25 2,48 11,89 25,126 70,181 207,202 381,219 81,8 78,70 -4,63 -88,-8 -184,-24 -257,-54 -12,-5 -24,-11 -35,-17 -17,97 60,188 152,233 95,46 207,45 281,39 56,-4 56,63 1,63 -59,0 -124,-1 -186,-9 -42,-6 -82,-15 -118,-29 1,5 2,9 3,14 15,59 61,133 155,197z"/>
    <path class="fil3" d="M2588 2708c-137,91 -223,195 -273,306 -38,85 -55,175 -57,267 35,-53 77,-101 120,-149 94,-107 190,-216 207,-384 1,-13 2,-26 3,-40z"/>
    <path class="fil3" d="M1597 4613c0,-2 0,0 0,0z"/>
    <path class="fil3" d="M2744 4760l0 -172 0 -14c-64,-6 -99,-23 -168,-40 -135,-34 -280,-71 -432,-24 -61,19 -114,37 -162,55 -113,40 -205,73 -329,85 -4,19 -9,39 -13,59 -10,43 -19,88 -33,130 103,-2 197,-46 289,-88 59,-27 117,-54 176,-70 237,-63 397,-10 546,39 54,18 76,29 127,40z"/>
    <path class="fil3" d="M4492 4084c-61,26 -117,40 -173,46 -51,6 -103,5 -159,3 -39,-2 -43,61 1,63 57,3 110,3 165,-3 41,-4 82,-12 125,-26 -2,8 -5,15 -8,22 -45,111 -145,171 -270,196 -131,27 -289,17 -445,-11 -163,-29 -323,-77 -447,-123 185,-34 328,-97 427,-194 112,-109 165,-258 154,-454 -7,-128 -46,-259 -82,-381 -25,-85 -49,-166 -59,-236 -18,-130 14,-227 190,-253 135,37 292,99 454,167 114,48 201,60 266,47 34,-7 61,-20 84,-39 22,-19 39,-43 51,-70 24,-58 25,-134 9,-213 -1,-5 -8,-39 -15,-73 -16,-74 -30,-142 -41,-215 29,57 62,114 94,171 103,179 205,358 170,509 -44,190 -267,233 -430,257 -70,10 -62,73 15,60 90,-14 194,-37 276,-73 17,-8 33,-16 48,-25 -2,48 -11,89 -25,126 -70,181 -207,202 -382,219 -81,8 -77,70 4,63 87,-8 184,-24 257,-54 12,-5 24,-11 35,-17 17,97 -60,188 -153,233 -95,46 -207,45 -281,39 -55,-4 -56,63 -1,63 60,0 125,-1 186,-9 42,-6 82,-15 118,-29 -1,5 -2,9 -3,14 -15,59 -61,133 -155,197z"/>
    <path class="fil3" d="M2973 2708c137,91 223,195 273,306 39,85 56,175 57,267 -35,-53 -77,-101 -120,-149 -94,-107 -190,-216 -207,-384 -1,-13 -2,-26 -3,-40z"/>
    <path class="fil3" d="M3964 4613c-1,-2 0,0 0,0z"/>
    <path class="fil3" d="M2816 4760l0 -172 0 -14c65,-6 99,-23 168,-40 135,-34 281,-71 432,-24 61,19 113,37 162,55 113,40 205,73 329,85 4,19 9,39 13,59 9,43 19,88 32,130 -103,-2 -197,-46 -288,-88 -59,-27 -117,-54 -177,-70 -237,-63 -397,-10 -546,39 -54,18 -76,29 -127,40z"/>
    <path class="fil3" d="M2780 4830c66,-5 108,-25 182,-50 141,-46 292,-96 511,-38 54,14 109,40 166,66 35,16 72,33 109,48 71,28 146,49 229,46 10,23 22,44 37,64 -132,-6 -252,-57 -362,-105 -67,-29 -131,-56 -194,-72 -229,-57 -344,-14 -472,34 -83,31 -133,50 -206,57 -73,-6 -124,-26 -206,-57 -128,-48 -243,-91 -472,-34 -63,16 -126,43 -193,72 -110,47 -230,99 -362,105 14,-20 26,-41 37,-64 83,3 158,-17 230,-46 37,-15 73,-31 108,-48 56,-26 112,-52 166,-66 219,-58 370,-8 510,38 75,25 117,45 183,50z"/>
    <path class="fil3 str1" d="M2780 4944c84,-6 150,-34 228,-63 118,-45 225,-84 435,-32 58,15 119,41 184,69 136,58 286,123 461,109l17 -56c-75,-59 -99,-170 -122,-275 -6,-28 -12,-55 -19,-83 0,1 0,1 0,0l-6 -22 -22 -2c-129,-10 -217,-49 -331,-89 -49,-17 -88,-42 -150,-61 -169,-53 -342,-2 -485,34 -76,19 -138,70 -205,72l0 0 -4 0 -4 0 -1 0c-67,-2 -87,-52 -162,-72 -143,-36 -298,-75 -466,-23 -62,19 -130,60 -179,77 -114,41 -204,67 -321,62l-22 2 -6 22c0,1 0,1 0,0 -8,29 -13,56 -20,83 -23,105 -48,216 -122,275l17 56c175,15 326,-50 461,-109 65,-28 127,-54 184,-69 210,-53 316,-13 435,32 78,29 145,57 229,63z"/>
    <path class="fil3" d="M2780 3989c-16,0 -19,26 -27,50 -7,22 -16,41 -28,61 -6,11 -12,21 -17,32l0 0c-48,107 4,179 71,248 70,-73 119,-142 71,-248 -5,-11 -11,-21 -16,-32 -11,-20 -20,-40 -28,-61 -8,-24 -11,-50 -27,-50z"/>
    <path class="fil3" d="M2907 2513c-2,2 -4,5 -6,8 -34,43 -69,88 -84,151 -16,70 -56,76 -71,3 -12,-57 -42,-99 -72,-139l0 2c-6,-8 -12,-16 -18,-24 0,77 -1,174 -7,241 -20,187 -122,305 -223,419 -79,90 -156,178 -183,295l-10 42 -37 -22c-76,-44 -123,-92 -151,-139 -29,-48 -40,-93 -45,-133 -6,-52 2,-100 16,-188 4,-25 9,-54 15,-97 28,-184 -55,-242 -198,-233 -17,1 -34,3 -53,6 119,55 141,159 122,290 -10,75 -35,158 -61,246 -35,118 -72,245 -79,366 -10,177 37,310 135,406 100,98 254,158 457,187l18 9 0 0 0 0c17,18 35,35 53,51 19,16 38,32 58,47 67,50 206,153 287,151 85,-1 305,-151 305,-151 0,0 40,-30 58,-47 19,-16 37,-33 54,-51l18 -9c203,-29 357,-89 457,-187 98,-96 145,-229 135,-406 -7,-122 -44,-248 -79,-366 -26,-88 -50,-171 -61,-246 -19,-131 3,-235 122,-290 -18,-3 -36,-5 -53,-6 -143,-10 -226,49 -198,233 7,42 11,71 16,97 15,87 23,136 16,188 -5,40 -16,85 -45,133 -29,47 -75,95 -151,139l-37 22 -10 -42c-27,-117 -104,-205 -183,-295 -100,-114 -203,-232 -223,-419 -7,-67 -8,-165 -7,-242z"/>
    <path class="fil3" d="M2591 2424c-13,-30 -22,-63 -23,-103 -2,-95 47,-164 97,-233 45,-62 81,-102 95,-192 7,-45 32,-38 38,1 15,84 52,127 98,191 49,69 99,138 97,233 -1,40 -10,74 -23,103 0,66 -1,152 0,215 107,65 188,138 249,216l1 -6 253 -1229c22,-105 47,-171 98,-209 20,-15 42,-24 69,-29 -7,-5 -15,-10 -22,-15 -80,-54 -160,-107 -245,-54 -31,20 -46,35 -52,70l-124 687c-11,52 -74,42 -61,-17l120 -665c8,-42 20,-88 8,-129 -18,-61 -76,-101 -129,-138 -24,-17 -47,-33 -66,-50 -2,16 -5,31 -7,44l0 0 -78 791c-6,49 -68,43 -62,-14l66 -673c7,-68 10,-100 -41,-149 -21,-20 -47,-40 -71,-59 -25,-19 -50,-35 -70,-55 -10,-10 -19,-21 -26,-32 -7,11 -16,22 -27,32 -20,19 -45,36 -70,55 -24,19 -49,38 -71,59 -51,48 -47,81 -41,149l66 673c6,57 -56,62 -62,14l-78 -791 0 0c-2,-13 -4,-28 -7,-44 -20,17 -43,33 -67,50 -52,36 -110,76 -128,138 -12,42 0,88 7,129l120 665c13,59 -49,69 -61,17l-124 -687c-6,-35 -21,-50 -52,-70 -84,-54 -164,0 -244,54 -7,5 -15,10 -22,15 26,5 49,15 69,29 50,37 76,104 98,209l252 1229 1 6c60,-78 141,-151 248,-216 1,-63 0,-149 1,-215z"/>
    <path class="fil4" d="M2755 4858l0 0 0 0zm1275 6l0 0c4,11 9,21 15,32 -127,29 -270,-26 -400,-85 -98,-44 -196,-88 -289,-92 -106,-5 -205,5 -302,28 -97,23 -191,60 -289,109 -1,1 -1,1 -2,1 0,0 0,0 -1,0l0 0c0,0 0,0 0,0 0,0 0,0 -1,0l0 0 0 0 0 0c0,0 0,0 0,0l0 0 0 0 0 0 0 0 0 0 0 0c0,0 0,0 0,0l0 0c0,0 0,0 0,0l0 0 -1 0 0 0 0 0 0 0 -1 0 0 0 0 0 -1 0c0,0 0,0 0,0l0 0 0 0 0 0c0,0 0,0 0,0l0 0 0 0 0 0 0 0 0 0 0 0 0 0 0 0 0 0 0 0c0,0 0,0 0,0l0 0 0 0c0,0 -1,0 -1,-1l0 0 0 0 0 0c0,0 0,0 0,0l0 0 0 0c0,0 -1,0 -1,-1 0,0 0,0 0,0 -97,-49 -192,-86 -289,-109 -97,-23 -196,-33 -302,-28 -94,4 -183,49 -270,92 -115,57 -240,107 -367,78l15 -32c114,26 227,-23 337,-78 91,-45 184,-91 284,-96 109,-5 211,5 312,29 97,23 192,60 290,108 97,-49 193,-85 290,-108 100,-24 202,-34 312,-29 99,5 200,50 301,96 125,56 255,111 371,85z"/>
    <path class="fil4" d="M2755 4571c0,0 0,0 0,0l0 0zm1200 9l0 0c4,11 9,21 15,32 -127,21 -194,-33 -325,-88 -98,-44 -196,-88 -289,-92 -106,-5 -205,5 -302,28 -97,23 -191,60 -289,109 -1,1 -1,1 -2,1 0,0 0,0 -1,1l0 0 0 0c0,0 0,0 -1,1l0 0 0 0 0 0 0 0 0 0 0 0 0 0 0 0c0,0 0,0 0,0l-1 0 0 0 0 0 0 0c0,0 0,0 -1,0l0 0 0 0 0 0 -1 0 0 0 0 0 -1 0 0 0 0 0 0 0 0 0 0 0 0 0 0 0 0 0 0 0c0,0 0,0 0,0l0 0 0 0 0 0 0 0 0 0c0,0 0,0 0,0l0 0c0,0 -1,0 -1,-1l0 0c0,0 0,0 0,0l0 0c0,0 0,0 0,0l0 0c0,0 -1,0 -1,-1 0,0 0,0 0,0 -97,-49 -192,-86 -289,-109 -361,-87 -612,210 -863,153l15 -32c232,53 499,-241 856,-155 97,23 192,60 290,108 97,-48 193,-85 290,-108 100,-24 202,-34 312,-29 99,5 200,50 301,96 125,52 180,101 295,88z"/>
    <polygon class="fil4" points="2736,4553 2771,4553 2771,4824 2736,4824 "/>
    <path class="fil4" d="M928 1916c-111,-53 -166,-79 -277,-132 -21,44 -31,67 -50,113 -23,-10 -35,-14 -58,-24 52,-126 82,-186 147,-299 22,13 32,19 54,31 -24,41 -35,62 -57,105 109,56 163,85 272,141 -13,25 -19,38 -32,65z"/>
    <path class="fil4" d="M717 1529c17,-28 26,-42 43,-69 67,44 100,66 167,110 26,18 44,28 53,32 14,6 28,6 42,2 14,-4 26,-15 38,-31 11,-16 17,-31 16,-44 -1,-13 -6,-25 -15,-34 -9,-9 -25,-23 -48,-40 -65,-49 -98,-74 -163,-123 19,-26 29,-38 48,-63 60,49 91,73 151,122 34,28 58,49 70,64 12,14 20,30 24,45 4,16 4,32 0,50 -4,18 -14,37 -29,59 -19,26 -35,45 -51,55 -16,10 -32,16 -48,17 -16,2 -31,0 -45,-5 -20,-7 -48,-21 -83,-43 -67,-41 -101,-62 -168,-103z"/>
    <path class="fil4" d="M1280 1389c-90,-84 -135,-126 -225,-209 -30,33 -45,50 -74,84 -19,-16 -29,-24 -48,-40 80,-95 122,-140 211,-222 17,18 25,28 42,46 -32,30 -48,45 -79,77 87,87 131,130 218,216 -18,19 -28,28 -45,48z"/>
    <path class="fil4" d="M1557 1139c-113,-100 -171,-149 -292,-241 24,-20 36,-29 61,-48 79,68 118,102 194,173 -39,-97 -58,-146 -92,-245 30,-20 45,-30 75,-48 77,74 114,112 187,189 -35,-99 -51,-149 -82,-251 26,-15 40,-22 66,-35 37,148 57,220 104,364 -23,13 -35,20 -58,34 -79,-81 -120,-121 -204,-198 37,108 56,161 99,267 -23,16 -34,24 -56,41z"/>
    <path class="fil4" d="M1707 615c27,-13 40,-19 67,-32 34,73 51,109 84,182 13,29 23,47 28,55 9,13 20,21 33,25 13,4 28,3 45,-4 17,-7 28,-16 33,-28 5,-11 7,-23 4,-36 -3,-12 -10,-32 -20,-60 -30,-76 -45,-114 -75,-190 28,-11 41,-16 69,-26 26,73 39,110 66,183 15,42 24,72 27,90 3,18 2,35 -2,50 -4,15 -12,29 -24,41 -12,12 -29,23 -51,33 -27,11 -50,17 -67,16 -17,-1 -33,-5 -47,-13 -14,-8 -25,-17 -34,-29 -13,-17 -29,-44 -48,-81 -35,-71 -53,-106 -88,-176z"/>
    <path class="fil4" d="M2164 829c-46,-141 -68,-211 -114,-351 59,-19 89,-27 149,-42 38,-9 66,-12 85,-9 19,3 35,12 48,26 14,15 22,33 27,54 5,27 2,51 -9,72 -11,21 -58,47 -58,47 0,1 30,14 42,23 12,9 28,26 49,51 21,25 31,38 51,64 -29,5 -44,8 -73,14 -25,-28 -37,-41 -63,-68 -23,-24 -39,-39 -47,-44 -8,-6 -16,-9 -23,-10 -8,-1 -19,1 -34,5 -5,1 -8,2 -13,4 17,59 26,89 43,148 -24,7 -36,10 -60,18zm1 -223l0 0c20,-6 29,-8 49,-13 32,-8 52,-14 59,-19 7,-5 12,-11 15,-20 3,-8 3,-18 1,-29 -3,-12 -8,-21 -16,-27 -8,-6 -18,-9 -30,-8 -6,0 -23,4 -51,11 -22,6 -32,8 -54,15 11,36 16,54 26,90z"/>
    <path class="fil4" d="M2466 758c-24,-146 -36,-218 -60,-364 29,-5 44,-7 73,-11 20,146 30,219 49,366 -25,3 -37,5 -62,9z"/>
    <path class="fil4" d="M2706 733c-7,-147 -10,-221 -18,-368 29,-1 44,-2 73,-2 1,58 2,87 3,145 54,-1 81,-1 135,2 2,-58 4,-87 6,-145 29,1 44,2 73,4 -10,147 -16,221 -26,368 -25,-2 -37,-2 -62,-3 3,-64 4,-97 7,-161 -53,-2 -79,-2 -132,-2 1,65 2,97 3,161 -25,0 -37,1 -62,2z"/>
    <path class="fil4" d="M3292 787c-26,-6 -40,-9 -67,-14 -4,-35 -6,-52 -11,-87 -51,-9 -76,-13 -127,-20 -15,32 -22,48 -36,80 -26,-3 -39,-4 -66,-7 61,-143 96,-214 173,-352 31,4 46,7 77,12 32,155 43,233 57,388zm-86 -167l0 0c-8,-57 -13,-86 -23,-143 -27,51 -41,77 -66,129 36,5 54,8 89,14z"/>
    <path class="fil4" d="M3325 795c37,-143 56,-215 92,-358 28,7 42,11 69,18 30,111 42,167 60,277 33,-93 50,-140 83,-232 26,9 39,14 64,23 -53,138 -80,207 -134,344 -23,-9 -35,-13 -59,-21 -15,-107 -26,-161 -53,-269 -26,93 -40,139 -67,231 -22,-6 -34,-9 -56,-15z"/>
    <path class="fil4" d="M3765 552c50,21 75,32 124,56 27,13 47,26 59,38 16,16 27,34 32,56 5,22 6,45 1,69 -5,24 -16,51 -34,81 -15,26 -32,47 -48,63 -21,19 -42,33 -63,40 -16,6 -34,7 -54,5 -15,-2 -33,-8 -54,-18 -43,-21 -64,-31 -108,-49 58,-136 87,-204 145,-340zm42 86l0 0c-41,89 -61,133 -103,222 18,8 26,12 44,20 16,8 29,13 37,14 11,2 21,2 31,-2 10,-3 20,-11 32,-23 12,-12 25,-31 38,-56 14,-25 22,-46 25,-61 3,-16 3,-29 -1,-41 -4,-12 -11,-22 -22,-31 -8,-7 -25,-17 -52,-29 -12,-6 -18,-8 -29,-14z"/>
    <path class="fil4" d="M4135 1203c-22,-18 -33,-27 -55,-44 12,-33 17,-50 28,-84 -42,-32 -64,-47 -108,-76 -27,22 -41,33 -68,56 -23,-15 -34,-22 -57,-35 118,-102 181,-150 312,-240 26,18 39,27 65,46 -39,155 -62,231 -117,377zm-7 -191l0 0c17,-55 26,-83 41,-140 -47,34 -71,51 -117,87 31,21 46,31 76,53z"/>
    <path class="fil4" d="M4193 1253c42,-46 62,-70 104,-116 19,-98 27,-148 37,-249 28,22 42,34 69,57 -11,68 -18,101 -32,167 64,-21 96,-30 163,-47 25,25 38,38 62,64 -101,17 -150,28 -247,55 -43,45 -64,68 -107,113 -19,-18 -28,-27 -48,-44z"/>
    <path class="fil4" d="M4507 1610c-17,-25 -26,-37 -43,-60 20,-30 29,-45 49,-75 -34,-44 -51,-66 -88,-107 -33,14 -49,21 -81,36 -19,-21 -28,-31 -48,-51 141,-67 215,-97 365,-147 22,25 32,38 53,65 -76,142 -118,211 -208,340zm40 -192l0 0c31,-50 46,-75 74,-126 -55,19 -82,30 -136,51 25,29 37,44 61,75z"/>
    <path class="fil4" d="M4528 1641c122,-83 184,-124 305,-207 18,26 26,40 43,67 -48,109 -75,162 -133,263 87,-47 130,-70 217,-117 15,27 22,41 36,70 -132,66 -198,99 -330,165 -13,-26 -19,-39 -33,-64 58,-96 85,-146 133,-250 -81,52 -122,77 -203,129 -14,-22 -20,-33 -35,-54z"/>
    <path class="fil4" d="M4698 1947c134,-61 202,-92 336,-153 14,31 21,47 34,79 -136,56 -204,85 -341,141 -11,-27 -17,-41 -29,-67z"/>
    <path class="fil4" d="M2699 3956c29,-28 133,-26 164,0 34,28 26,172 26,172 0,0 60,77 58,107 -3,57 -111,160 -171,160 -60,0 -168,-106 -171,-164 -2,-31 60,-111 60,-111 0,0 3,-134 33,-164zm2 172l0 0c0,0 -43,66 -41,92 2,48 76,135 117,135 41,0 115,-84 117,-132 1,-25 -40,-88 -40,-88 0,0 6,-118 -18,-141 -21,-22 -93,-23 -112,0 -21,24 -23,135 -23,135z"/>
    <path class="fil3" d="M3004 3413c0,0 0,0 0,0z"/>
    <path class="fil3" d="M3004 3413c0,0 0,1 0,0z"/>
    <path class="fil3" d="M2915 3256c-51,-81 -101,-175 -136,-286 -43,114 -18,226 3,322 24,109 50,220 -7,391 -21,63 -75,20 -59,-17 96,-224 -19,-435 -48,-497 -22,79 -85,168 -119,244 -47,105 -65,240 1,338 12,19 28,36 47,52 15,12 32,23 51,34 11,-8 24,-14 37,-20 4,-2 8,-4 12,-5 25,-9 52,-14 80,-14 40,0 78,10 111,28 6,3 12,7 18,11 121,-64 151,-179 137,-289 -3,-23 -8,-47 -14,-69 -7,-23 -15,-45 -24,-65l0 0 0 0 0 0c-24,-54 -56,-105 -89,-157z"/>
    <path class="fil5" d="M2808 2824c29,211 99,291 164,402 34,54 66,106 92,164 0,1 0,1 0,1 0,0 0,0 0,0l0 0c10,23 19,48 26,73 7,25 13,51 16,77 18,139 -24,284 -191,360l-20 9 -16 -13c-4,-4 -8,-6 -12,-9 -4,-3 -8,-5 -13,-8 -23,-12 -50,-20 -79,-20 -20,0 -39,4 -56,10 -3,1 -6,2 -8,3 -14,6 -27,14 -39,24l-16 13 -20 -9 -1 0c-32,-15 -59,-32 -83,-51 -24,-19 -43,-41 -58,-65 -78,-118 -59,-274 -6,-393 44,-99 122,-180 143,-304 7,-44 15,-90 54,-15 6,11 13,25 19,47 -20,-78 40,-245 61,-301 19,-49 37,-64 42,6z"/>
    <g>
     <path class="fil1 str2" d="M2808 2824c29,211 99,291 164,402 34,54 66,106 92,164 0,1 0,1 0,1 0,0 0,0 0,0"/>
     <line class="fil1 str2" x1="3064" y1="3390" x2="3064" y2= "3390" />
     <path class="fil1 str2" d="M3064 3390c10,23 19,48 26,73 7,25 13,51 16,77 18,139 -24,284 -191,360"/>
     <polyline class="fil1 str2" points="2915,3900 2895,3909 2879,3896 "/>
     <path class="fil1 str2" d="M2879 3896c-4,-4 -8,-6 -12,-9 -4,-3 -8,-5 -13,-8 -23,-12 -50,-20 -79,-20 -20,0 -39,4 -56,10 -3,1 -6,2 -8,3 -14,6 -27,14 -39,24"/>
     <polyline class="fil1 str2" points="2672,3896 2656,3909 2636,3900 2635,3900 "/>
     <path class="fil1 str2" d="M2635 3900c-32,-15 -59,-32 -83,-51 -24,-19 -43,-41 -59,-65 -78,-118 -59,-274 -6,-393 44,-99 122,-180 143,-304 7,-44 15,-90 54,-15 6,11 13,25 20,47 -20,-78 40,-245 61,-301 19,-49 37,-64 42,6"/>
     <path class="fil4" d="M2709 3061c0,0 97,200 109,308 11,100 -98,308 -98,308 0,0 53,-194 46,-297 -6,-91 -91,-274 -91,-274l34 -46z"/>
    </g>
    <path class="fil1 str3" d="M2780 4944c84,-6 150,-34 228,-63 118,-45 225,-84 435,-32 58,15 119,41 184,69 136,58 286,123 461,109"/>
    <line class="fil1 str3" x1="4089" y1="5027" x2="4105" y2= "4971" />
    <path class="fil1 str3" d="M4105 4971c-75,-59 -99,-170 -122,-275 -6,-28 -12,-55 -19,-83 0,1 0,1 0,0"/>
    <polyline class="fil1 str3" points="3964,4613 3958,4591 3935,4589 "/>
    <path class="fil1 str3" d="M3935 4589c-129,-10 -217,-49 -331,-89 -49,-17 -88,-42 -150,-61 -169,-53 -342,-2 -485,34 -76,19 -138,70 -205,72"/>
    <polyline class="fil1 str3" points="2764,4544 2763,4544 2759,4544 2755,4544 2754,4544 "/>
    <path class="fil1 str3" d="M2754 4544c-67,-2 -87,-52 -162,-72 -143,-36 -298,-75 -466,-23 -62,19 -130,60 -179,77 -114,41 -204,67 -321,62"/>
    <polyline class="fil1 str3" points="1625,4589 1603,4591 1597,4613 "/>
    <path class="fil1 str3" d="M1597 4613c0,1 0,1 0,0 -8,29 -13,56 -20,83 -23,105 -48,216 -122,275"/>
    <line class="fil1 str3" x1="1455" y1="4971" x2="1472" y2= "5027" />
    <path class="fil1 str3" d="M1472 5027c175,15 326,-50 461,-109 65,-28 127,-54 184,-69 210,-53 316,-13 435,32 78,29 145,57 229,63"/>
   </g>
  </g>
 </g>
</svg>
